<svg xmlns="http://www.w3.org/2000/svg" width="583.529" height="455.335" viewBox="0 0 583.529 455.335"><defs><style>.a{fill:#fff;}</style></defs><g transform="translate(0 0.002)"><path class="a" d="M583.307,132.9v20.119L.54,146.477v-6.533H.665Z" transform="translate(-0.156 -41.908)"/><path class="a" d="M583.307,201.4v6.54h-.127L.54,214.979V194.86Z" transform="translate(-0.156 -61.447)"/><path class="a" d="M291.764,541.442a288.145,288.145,0,0,1-163.127-50.423A295.592,295.592,0,0,1,0,246.381V241.14H583.528v5.241A295.819,295.819,0,0,1,454.892,491.046,288.143,288.143,0,0,1,291.764,541.442ZM10,251.216A285.483,285.483,0,0,0,134.212,482.7a279.306,279.306,0,0,0,356.815-34.8,285.721,285.721,0,0,0,82.5-196.684Z" transform="translate(0 -86.11)"/><path class="a" d="M344.85,481.8c-.511-1.042-1.023-2.084-1.519-3.074-1.3-2.634-2.563-5.185-3.6-7.5l1.655,3.4C342.435,476.789,343.671,479.338,344.85,481.8Z" transform="translate(-101.196 -148.357)"/><path class="a" d="M371.629,578.331a11.54,11.54,0,0,1-1.03-.711Z" transform="translate(-110.371 -183.633)"/><path class="a" d="M460.737,566.64l-.227.448-.05.056Z" transform="translate(-137.127 -180.449)"/><path class="a" d="M463.949,554.4v.135c-.121.546-.233,1.08-.342,1.6-.077.363-.156.711-.227,1.073a19.046,19.046,0,0,1,.569-2.811Z" transform="translate(-138 -176.901)"/><path class="a" d="M486.476,461.46a11.11,11.11,0,0,1-.846,2.755v.035c.192-.5.363-.979.519-1.421a12.663,12.663,0,0,0,.327-1.369Z" transform="translate(-144.628 -145.084)"/><path class="a" d="M488.014,439.722c-.227-.625-.54-1.534-.844-2.472h0c.221.711.461,1.378.711,2.024Z" transform="translate(-145.087 -137.465)"/><path class="a" d="M505.2,305.772a12.826,12.826,0,0,1-1.719-.115l-3.914-.525c-10.226-1.357-11.3-1.5-13.017-4.531-.652-1.144-3.843-7.023-2.649-10.268a3.126,3.126,0,0,1,1.888-1.917c15.964-6.252,46.943-18.464,49.975-20.084a4.92,4.92,0,0,1,6,.611c2.336,2.372,1.59,6.108.106,8.813A82.535,82.535,0,0,1,527.093,294.5C516.861,303.557,509.723,305.772,505.2,305.772Zm33.313-35.22a3,3,0,0,0-1.371.383c-3.935,2.084-48.4,19.488-50.288,20.225h-.035c-.056,0-.092.035-.142.171-.433,1.165.667,4.658,2.442,7.811.959,1.684.994,1.746,10.837,3.053l3.92.525a9.669,9.669,0,0,0,1.371.092c6.923,0,15.326-6.483,19.884-10.533a80.583,80.583,0,0,0,14.146-15.951c1.384-2.536,1.186-4.5.383-5.318a1.569,1.569,0,0,0-1.171-.461Z" transform="translate(-144.461 -84.678)"/><path class="a" d="M344.76,418c.106.752.208,1.528.292,2.315s.177,1.492.277,2.215A26.148,26.148,0,0,0,344.76,418Z" transform="translate(-102.673 -131.459)"/><path class="a" d="M368.142,547.449c-.092.711-.163,1.421-.221,2.13m-3.96-2.7.781.534v-.056c-.258-.15-.521-.312-.777-.477ZM345.8,472.5l-1.648-3.387c1.023,2.272,2.28,4.822,3.587,7.457l1.459,2.961c-1.013-2.138-2.163-4.5-3.391-7.031Z" transform="translate(-102.608 -152.184)"/><path class="a" d="M450.931,378.982c.711-.417,1.215-.752,1.25-.773l.834-.569-.221-.988a51.688,51.688,0,0,0-5.439-10.689c.909-.569,1.776-1.094,2.5-1.513l.652-.377.177-.711c.333-1.421,1.348-5.823-8.949-34.009-3.985-10.9-8.167-21.257-9.743-25.112a20.582,20.582,0,0,0,3.607-2.649l.894-.834-.469-1.121a47.842,47.842,0,0,0-4.135-7.857c-.121-.171,0-.59.208-1.419.711-2.663,1.961-7.1-6.144-14.38-11.079-9.943-21.432-8.753-21.866-8.7-9.378,1.186-32.667.05-33.953,0-1.042-.115-11.085-.894-21.795,8.713-8.1,7.265-6.877,11.725-6.135,14.38.233.844.327,1.265.208,1.419a48.463,48.463,0,0,0-4.141,7.861l-.469,1.121.894.834a20.722,20.722,0,0,0,3.616,2.649c-1.584,3.864-5.76,14.2-9.743,25.112-10.3,28.186-9.282,32.569-8.949,34.009l.171.711.654.377c.711.4,1.519.894,2.386,1.419a52.886,52.886,0,0,0-5.475,10.76l-.221.988.834.569c.035,0,.519.348,1.25.773-.292,2-1.357,9.651-1.734,17.562-.625,13.294.873,20.388,4.716,22.343,2.841,1.421,5.439,5.873,7.229,12.208a50.989,50.989,0,0,1,1.946,16.42c-.817,9.707.994,22.243,8.522,28.322a89.485,89.485,0,0,1,7.271,6.569,14.488,14.488,0,0,0,4.585,4.929l.483.327,1.029.711c.256.163.519.327.788.475v.056a43.651,43.651,0,0,0-.327,5.389c0,19.957,13.188,36.218,29.408,36.218s29.408-16.241,29.408-36.218a44.645,44.645,0,0,0-.333-5.435v-.007a19.477,19.477,0,0,0,3.126-2.23h0a14.423,14.423,0,0,0,3.543-4.183,86.9,86.9,0,0,1,7.344-6.575c7.548-6.079,9.359-18.615,8.522-28.322a50.8,50.8,0,0,1,1.947-16.42c1.782-6.335,4.418-10.781,7.229-12.208,3.843-1.953,5.341-9.047,4.716-22.343C452.288,388.633,451.221,380.976,450.931,378.982ZM346.1,473.121c-6.492-5.227-7.961-16.9-7.25-25.317.711-8.592-2.528-27.7-11.072-32.021-.846-.433-3.543-3.082-2.841-19.046.256-5.433.844-10.745,1.271-14.117.959,2.542,2.513,6.563,5.681,6.554a4.184,4.184,0,0,0,.834-.077,5.327,5.327,0,0,0,2.336-1.13c-.327,1-.661,1.953-.888,2.593a30.057,30.057,0,0,0-1.073,3.345c-.05.248-.15.625-.263,1.086-.767,2.918-2.351,9.02.171,14.4.342.711.767,1.626,1.25,2.628a.838.838,0,0,1,.035.077l1.655,3.4c1.042,2.13,2.292,4.7,3.466,7.173l.115.242a84.021,84.021,0,0,1,4.091,9.418,21.936,21.936,0,0,0,.711,2.292,15.182,15.182,0,0,1,.44,10.8,27.15,27.15,0,0,1-2.678,5.51c-1.459,2.428-2.709,4.531-1.484,8.017a22.183,22.183,0,0,0,3.495,5.806c.711.952,1.421,1.917,2.084,2.941.092.15.185.292.269.44l.135.227.112.208a2.164,2.164,0,0,1,.121.221h0A12.439,12.439,0,0,1,348.034,472c.121.54.227,1.065.333,1.584s.248,1.157.377,1.726c-.817-.7-1.7-1.442-2.636-2.188Zm76.613-1.967h0v.135c-.121.546-.233,1.08-.342,1.6-.079.363-.156.711-.227,1.073h0a.685.685,0,0,1-.035.263,16.184,16.184,0,0,1-1.726,5.589h0l-.227.448-.05.056h0c-2.486,2.536-3.926,4.3-4.035,4.439v.042h0l-.4.283a38.7,38.7,0,0,0-8.1-16.981,27.3,27.3,0,0,0,3.416-2.628,23.131,23.131,0,0,0,4.6-5.454c1.619-2.841,1.115-4.377.417-5.191a2.841,2.841,0,0,0-2.032-.923c-2.663-.163-6.392,2.309-9.055,4.681a22.978,22.978,0,0,0-4.585,5.454c-1.619,2.841-1.121,4.376-.417,5.185a2.8,2.8,0,0,0,2.032.929h.248a6.741,6.741,0,0,0,2.292-.469,35.678,35.678,0,0,1,8.4,19.033q.15,1.086.234,2.195h0q.138,1.641.135,3.316c0,18.1-11.671,32.823-26.027,32.823s-26.113-14.68-26.113-32.746c0-1.08.042-2.13.127-3.224.056-.711.127-1.421.221-2.13h0a35.858,35.858,0,0,1,8.253-19,6.186,6.186,0,0,0,1.726.277h.256a2.791,2.791,0,0,0,2.024-.93c.711-.8,1.2-2.351-.417-5.185a19.527,19.527,0,0,0-1.938-2.728,28.2,28.2,0,0,0-2.663-2.728c-2.643-2.372-6.392-4.843-9.055-4.681a2.841,2.841,0,0,0-2.032.923c-.711.811-1.194,2.357.417,5.191a23.322,23.322,0,0,0,4.6,5.454,26.614,26.614,0,0,0,3.9,2.932,38.764,38.764,0,0,0-7.869,16.624c-.283-.208-.561-.4-.834-.611-.475-.569-1.611-1.876-3.295-3.628a15.919,15.919,0,0,1-2.357-6.619,19.779,19.779,0,0,0-2.513-7.478l-.156-.271-.363-.6c-.711-1.18-1.5-2.251-2.251-3.268a22.923,22.923,0,0,1-2.968-4.843c-.711-1.767,0-3.139,1.59-5.823a24.075,24.075,0,0,0,3.707-9.878c.625-5.377-2.882-13.2-6.746-21.084l-1.459-2.961c-1.307-2.634-2.563-5.185-3.587-7.457h0a43.709,43.709,0,0,1-1.619-4.07c-1.584-4.829.4-10.654,1.988-15.376a23.815,23.815,0,0,0,1.734-7.1h0a3.439,3.439,0,0,0-.319-1.711,17.406,17.406,0,0,1-.781-3.5c-.1-.711-.192-1.469-.277-2.215s-.185-1.563-.292-2.315h0a12.133,12.133,0,0,0-1.846-5.627,11.412,11.412,0,0,0-.882-.952,9.333,9.333,0,0,0-4.731-3.6c-1.419-.93-2.709-1.732-3.543-2.209-.1-2.351.938-9.545,8.905-31.34,4.97-13.657,10.291-26.446,10.341-26.567l.773-1.861-1.953-.5a10.165,10.165,0,0,1-3-1.811,39.829,39.829,0,0,1,3.253-6.014,4.741,4.741,0,0,0,.313-4.376c-.625-2.251-1.384-5.05,5.114-10.872,9.828-8.82,19.019-7.855,19.1-7.811h.127c1.009.056,24.706,1.25,34.614,0,.092,0,9.289-.979,19.117,7.811,6.492,5.823,5.725,8.622,5.106,10.872a4.745,4.745,0,0,0,.319,4.376,39.72,39.72,0,0,1,3.245,6.015,10.076,10.076,0,0,1-3,1.811l-1.953.5.773,1.861c.056.121,5.354,12.921,10.347,26.567,7.961,21.795,9.005,28.989,8.905,31.34-.788.463-2.044,1.23-3.395,2.13a9.482,9.482,0,0,0-5.354,4.183c-.142.156-.269.306-.39.454a9.235,9.235,0,0,0-1.54,3.878,25.372,25.372,0,0,0-1.042,7.344,14.621,14.621,0,0,1-.454,1.982c-.056.185-.115.354-.177.519-.834,2.13.163,5.056,1.421,8.784l.208.581v.079c.313.923.625,1.9.93,2.884h0a22.717,22.717,0,0,1,1.207,10.347v.127a11.119,11.119,0,0,1-.846,2.755v.035h0c-1.1,2.841-2.841,6.392-4.681,10.078-2.236,4.524-4.51,9.111-6.108,13.338h0a24.466,24.466,0,0,0-2.095,10.7,19.954,19.954,0,0,0,1.03,4.445l.106.3a31.956,31.956,0,0,0,2.572,5.135c1.563,2.684,2.28,4.056,1.584,5.823a22.65,22.65,0,0,1-2.968,4.843,27.231,27.231,0,0,0-4.6,8.5Zm-20.592-3.9h0a13.929,13.929,0,0,1,4.7-6.433,13.588,13.588,0,0,1,6.8-3.935h0a19.214,19.214,0,0,1-11.491,10.368Zm-37.513-3.941a13.963,13.963,0,0,1-4.7-6.427h0a13.836,13.836,0,0,1,6.8,3.935,14.127,14.127,0,0,1,4.7,6.433h0a13.824,13.824,0,0,1-6.79-3.941Zm81.744-47.535c-8.522,4.333-11.8,23.435-11.072,32.021.711,8.415-.761,20.09-7.259,25.317-.9.711-1.769,1.459-2.584,2.174a5.728,5.728,0,0,1,.077-.6v-.106h0a15.531,15.531,0,0,1,.519-2.463h0a23.761,23.761,0,0,1,4.106-7.427,25.342,25.342,0,0,0,3.395-5.627c1.348-3.422-.185-6.058-1.817-8.849a28.415,28.415,0,0,1-2.386-4.814,16.864,16.864,0,0,1-.867-3.714,21.837,21.837,0,0,1,1.946-9.17h0c1.59-4.189,3.891-8.828,5.917-12.921,1.84-3.707,3.587-7.244,4.743-10.212a.169.169,0,0,0,0-.05c.242-.6.454-1.186.625-1.74a15.537,15.537,0,0,0,.417-1.54h0a24.865,24.865,0,0,0-1.18-12.215h0c-.319-1.059-.661-2.084-.994-3.074a1.552,1.552,0,0,0-.056-.171l-.042-.121c-.227-.625-.54-1.534-.846-2.472h0a5.364,5.364,0,0,0,2.315,1.1c3.751.746,5.483-3.722,6.519-6.477.417,3.366,1.015,8.663,1.271,14.09.834,15.964-1.888,18.615-2.741,19.046Z" transform="translate(-96.373 -93.664)"/><path class="a" d="M298.687,305.772c-4.539,0-11.683-2.215-21.895-11.27a82.133,82.133,0,0,1-14.778-16.745c-1.478-2.709-2.23-6.442.106-8.813a4.933,4.933,0,0,1,6.008-.611c3.026,1.59,34,13.828,49.967,20.084a3.089,3.089,0,0,1,1.888,1.917c1.194,3.245-2,9.126-2.643,10.268-1.726,3.032-2.791,3.174-13.025,4.531l-3.914.525a12.683,12.683,0,0,1-1.715.115Zm-33.313-35.22a1.555,1.555,0,0,0-1.144.454c-.811.834-1,2.784.377,5.318a80.825,80.825,0,0,0,14.146,15.951c4.566,4.047,12.961,10.533,19.886,10.533a9.777,9.777,0,0,0,1.371-.092l3.92-.525c9.837-1.307,9.878-1.371,10.837-3.053,1.776-3.126,2.841-6.625,2.436-7.811-.042-.135-.079-.15-.142-.171h0c-1.9-.711-46.353-18.152-50.294-20.225a2.978,2.978,0,0,0-1.4-.369Z" transform="translate(-77.849 -84.678)"/><path class="a" d="M241.125,379.464a45.184,45.184,0,0,1-4.858-.242c-10.533-1.136-17.714-6.144-24.039-10.56a80.189,80.189,0,0,0-6.861-4.481,5.852,5.852,0,0,1-3.076-6.085c.882-7.811,13.494-18.848,22.257-21.418a19.8,19.8,0,0,0,7.811-5.539c6.321-6.114,14.2-13.721,38.286-8.92,17.818,3.543,26.986,7.365,28.051,11.671a3.416,3.416,0,0,1-.546,2.841c0,2.215-.348,9.232-3.96,12.073a7.523,7.523,0,0,0-2.543,3.324,62.425,62.425,0,0,1-7.38,11.27C275.922,374.081,255.242,379.464,241.125,379.464Zm15.751-55.783c-12.5,0-17.714,5.041-22.435,9.609a22.22,22.22,0,0,1-9.047,6.252c-8.351,2.451-19.452,12.861-20.125,18.883a2.841,2.841,0,0,0,1.555,3.139,81.748,81.748,0,0,1,7.1,4.637c6.327,4.424,12.869,8.99,22.641,10.041a67.253,67.253,0,0,0,24.733-2.822c9.5-2.841,16.81-7.032,20.594-11.879a62.309,62.309,0,0,0,7.1-10.8,10.475,10.475,0,0,1,3.366-4.333c2.463-1.911,2.841-8.011,2.841-10.2v-.809l.554-.377a.454.454,0,0,0,.085-.469c-.221-.761-2.5-4.779-25.715-9.4a67.764,67.764,0,0,0-13.273-1.459Z" transform="translate(-60.537 -101.901)"/><path class="a" d="M550.065,379.612c-14.2,0-34.983-5.418-43.321-16.2a60.588,60.588,0,0,1-7.406-11.306,7.418,7.418,0,0,0-2.464-3.245c-3.672-2.841-4.047-9.837-4.07-12.158a3.678,3.678,0,0,1-.54-2.991c.5-2.032,2.613-3.885,6.46-5.681a104.455,104.455,0,0,1,21.78-6.179c10.7-2.13,19.173-2.009,25.842.369A33.953,33.953,0,0,1,559,330.837a19.649,19.649,0,0,0,7.711,5.483c8.834,2.584,21.547,13.755,22.428,21.624a6.073,6.073,0,0,1-3.2,6.327c-2.251,1.265-4.481,2.841-6.84,4.466-6.392,4.439-13.557,9.466-24.146,10.6A45.326,45.326,0,0,1,550.065,379.612Zm-53.81-43.5c-.065,3,.611,8.359,2.72,10a10.7,10.7,0,0,1,3.437,4.418,60.15,60.15,0,0,0,7.052,10.745c7.861,10.126,30.7,16.178,45.1,14.63,9.707-1.042,16.22-5.6,22.526-10,2.436-1.7,4.731-3.3,7.1-4.652a2.613,2.613,0,0,0,1.421-2.9c-.667-5.952-11.671-16.255-19.948-18.677a22.365,22.365,0,0,1-9.155-6.313c-6.029-5.881-12.921-12.556-35.352-8.076-23.777,4.737-25.425,8.807-25.567,9.232a.465.465,0,0,0,0,.171l.667.54Z" transform="translate(-147.336 -101.794)"/><path class="a" d="M427.536,577.419v-.667a30.956,30.956,0,0,0-7.144-18.627l-1.959,1.711a27.278,27.278,0,0,1,5.979,12.74,24.8,24.8,0,0,1-13.43-1.094,10.514,10.514,0,0,0-1.378-.448,14.985,14.985,0,0,0-5.389-.369c-.711.042-1.534.1-2.684.142a14.215,14.215,0,0,0-1.469.106,16.736,16.736,0,0,0-3.772.881,21.617,21.617,0,0,1-10.858.782,27.172,27.172,0,0,1,6.235-13.026l-1.938-1.74a30.83,30.83,0,0,0-7.427,19.117v1.584c0,15.376,10.162,27.888,22.662,27.888s22.576-12.5,22.576-27.859ZM404.88,603.8c-11.064,0-20.063-11.362-20.063-25.29a20.733,20.733,0,0,1,.1-2.486,24.436,24.436,0,0,0,12.379-.917,14.6,14.6,0,0,1,3.047-.711c.469-.044.888-.071,1.277-.085,1.2-.042,2.084-.1,2.776-.15a11.894,11.894,0,0,1,4.439.3,8.369,8.369,0,0,1,.894.306,25.093,25.093,0,0,0,9.509,1.634,40.9,40.9,0,0,0,5.6-.417c.065.834.1,1.655.1,2.486,0,13.982-9,25.323-20.055,25.323Z" transform="translate(-114.102 -177.89)"/><path class="a" d="M405.761,465.68H403.49l-.511-.834c-.065-.1-6.392-10.56-12.258-21.5-3.451-6.461-6.058-11.825-7.748-15.957-3.089-7.536-2.643-9.822-1.8-11.064,3.074-4.545,3.089-12.016.056-24.969-1.384-5.894,1.932-18.339,9.843-37.014,5.81-13.707,12.073-25.936,12.144-26.05l1.563-3.032,1.54,3.039c.065.121,6.265,12.35,12,26.05,7.811,18.662,11.072,31.119,9.693,37.006-3.039,12.954-3.018,20.423.056,24.969.834,1.25,1.286,3.543-1.8,11.064-1.69,4.133-4.3,9.5-7.748,15.957-5.835,10.943-12.194,21.405-12.258,21.5Zm-21.674-47.447c-.142.4-.752,3.96,9.993,23.989,4.118,7.669,8.43,15.034,10.553,18.592,2.13-3.543,6.433-10.922,10.545-18.592,10.737-20.027,10.126-23.585,9.984-23.989-3.7-5.5-3.855-13.53-.54-27.7,2.272-9.707-12.35-42.368-19.886-57.609-7.592,15.232-22.405,47.908-20.134,57.609,3.374,14.153,3.182,22.178-.519,27.682Z" transform="translate(-113.599 -105.575)"/><path class="a" d="M655.11,28.2h22.243a30.683,30.683,0,0,1,7.725.923,18.918,18.918,0,0,1,6.171,2.734,13.047,13.047,0,0,1,4.07,4.631,13.95,13.95,0,0,1,1.492,6.613,11.654,11.654,0,0,1-3.1,8.394,18.087,18.087,0,0,1-7.955,4.752v.171a14.255,14.255,0,0,1,5.418,1.421,14.738,14.738,0,0,1,4.376,3.195,15.2,15.2,0,0,1,2.941,4.585,14.524,14.524,0,0,1,1.086,5.639,14.108,14.108,0,0,1-1.761,7.1,15.759,15.759,0,0,1-4.837,5.17,23.207,23.207,0,0,1-7.144,3.2,33.608,33.608,0,0,1-8.77,1.094H655.11Zm8.678,24.714h11.839a21.765,21.765,0,0,0,4.608-.463,10.653,10.653,0,0,0,3.8-1.555,8.109,8.109,0,0,0,2.578-2.776A8.3,8.3,0,0,0,687.564,44a8.7,8.7,0,0,0-2.442-6.144,10.091,10.091,0,0,0-7.684-2.613H663.79Zm0,27.774h12.748a27.9,27.9,0,0,0,4.4-.388,13.89,13.89,0,0,0,4.474-1.513,10.916,10.916,0,0,0,3.543-3.076,8.413,8.413,0,0,0,1.419-5.135,9.134,9.134,0,0,0-3.707-7.955A16.816,16.816,0,0,0,676.625,60h-12.84Z" transform="translate(-196.496 -8.169)"/><path class="a" d="M767.016,82.982a36.643,36.643,0,0,1-13.494-2.4,31.606,31.606,0,0,1-10.533-6.6,30.428,30.428,0,0,1-6.877-9.943,32.046,32.046,0,0,1,0-24.75,30.428,30.428,0,0,1,6.877-9.943,31.617,31.617,0,0,1,10.533-6.613,39.116,39.116,0,0,1,26.945,0,31.654,31.654,0,0,1,10.539,6.613,30.537,30.537,0,0,1,9.353,22.3,30.537,30.537,0,0,1-9.353,22.3,31.64,31.64,0,0,1-10.539,6.6,36.621,36.621,0,0,1-13.45,2.428Zm0-7.571a25.056,25.056,0,0,0,9.943-1.9,23.611,23.611,0,0,0,7.592-5.091,22.3,22.3,0,0,0,4.887-7.536,25.566,25.566,0,0,0,0-18.429,22.3,22.3,0,0,0-4.887-7.536,23.612,23.612,0,0,0-7.592-5.091,27.036,27.036,0,0,0-19.884,0,23.648,23.648,0,0,0-7.6,5.091,22.179,22.179,0,0,0-4.881,7.542,25.563,25.563,0,0,0,0,18.429,22.179,22.179,0,0,0,4.879,7.536,23.647,23.647,0,0,0,7.6,5.091A25.02,25.02,0,0,0,767.016,75.411Zm5.973-56.894h-7.5L751.99,6.39h11.591Z" transform="translate(-219.254 -1.849)"/><path class="a" d="M330.734,59.51h-6.5v-5.56h6.5V28.2h22.335a44.336,44.336,0,0,1,11.879,1.421,32.664,32.664,0,0,1,8.863,3.835,25.516,25.516,0,0,1,6.252,5.51,28.989,28.989,0,0,1,3.926,6.392,30.4,30.4,0,0,1,2.084,6.563,32.427,32.427,0,0,1,.625,6.058,28.173,28.173,0,0,1-2.273,11.086,27.8,27.8,0,0,1-6.69,9.51,33.306,33.306,0,0,1-10.987,6.69A41.987,41.987,0,0,1,351.6,87.79H330.734Zm8.686,20.7h10.922a38.461,38.461,0,0,0,10.447-1.421,26.175,26.175,0,0,0,8.636-4.168,20.363,20.363,0,0,0,5.873-6.946,20.724,20.724,0,0,0,2.174-9.722,27.291,27.291,0,0,0-.994-6.69,19.558,19.558,0,0,0-3.751-7.28,21.923,21.923,0,0,0-7.642-5.852,29,29,0,0,0-12.606-2.357H339.427V53.947h21.155v5.56H339.42Z" transform="translate(-96.862 -8.17)"/><path class="a" d="M534.308,28.2V64.725a22.011,22.011,0,0,0,.809,5.767,16.139,16.139,0,0,0,2.709,5.518,14.437,14.437,0,0,0,4.971,4.118,18.777,18.777,0,0,0,15.191,0,14.378,14.378,0,0,0,4.97-4.118,16.013,16.013,0,0,0,2.693-5.519,21.737,21.737,0,0,0,.817-5.766V28.2h8.678V65.988a23.011,23.011,0,0,1-1.9,9.474A22.507,22.507,0,0,1,568,82.827a23.434,23.434,0,0,1-7.861,4.793,29.176,29.176,0,0,1-19.529,0,23.362,23.362,0,0,1-7.869-4.793,22.491,22.491,0,0,1-5.241-7.365,22.892,22.892,0,0,1-1.9-9.474V28.2Z" transform="translate(-156.909 -8.171)"/><path class="a" d="M450.478,21.656h7.869l27.4,59.591H475.6l-6.392-14.73h-30.5l-6.327,14.73H422.26Zm10.212-4.2-6.669-8.1-6.725,8.1h-8.232L449.19,5.33h9.587l10.155,12.123Zm5.346,42-11.946-27.37H453.9l-12.115,27.37Z" transform="translate(-126.157 -1.544)"/><path class="a" d="M500.139,17.453h-7.5L479.14,5.33h11.575Z" transform="translate(-142.83 -1.544)"/><path class="a" d="M3.38,28.195H25.887A28.134,28.134,0,0,1,36.014,29.75,17.393,17.393,0,0,1,42.3,33.734a13.265,13.265,0,0,1,3.209,5.389,18.631,18.631,0,0,1,.015,11.5,13.265,13.265,0,0,1-3.209,5.389,17.391,17.391,0,0,1-6.285,3.96A28.134,28.134,0,0,1,25.9,61.525H12.058V87.8H3.38Zm8.678,26.284h11.37a32.926,32.926,0,0,0,5.02-.383,14.282,14.282,0,0,0,4.431-1.421,7.955,7.955,0,0,0,3.126-2.905,10.745,10.745,0,0,0,.035-9.828,7.955,7.955,0,0,0-3.089-2.905,14.1,14.1,0,0,0-4.431-1.421,32.927,32.927,0,0,0-5.02-.383H12.122Z" transform="translate(-0.981 -8.166)"/><path class="a" d="M82.82,28.2h8.651V52.914h33.186V28.2h8.713V87.791h-8.686V60.519H91.471V87.791H82.82Z" transform="translate(-24.004 -8.171)"/><path class="a" d="M243.592,17.282V17.24l-7.563,1.192.056.1a10.987,10.987,0,0,1,1.726,5.725c0,2.72-1.421,3.885-4.814,3.885A51.255,51.255,0,0,1,222.116,25.5a44.029,44.029,0,0,0-13.152-2.038,36.835,36.835,0,0,0-13.494,2.4,31.677,31.677,0,0,0-10.56,6.613,31.244,31.244,0,0,0,0,44.642,31.566,31.566,0,0,0,10.56,6.613,39.2,39.2,0,0,0,26.986,0,31.6,31.6,0,0,0,10.568-6.613A30.537,30.537,0,0,0,242.4,54.8a32.547,32.547,0,0,0-.39-5.106,24.288,24.288,0,0,0-2.174-7.861,30.9,30.9,0,0,0-5.6-9.011,11.733,11.733,0,0,0,8.957-2.324,7.628,7.628,0,0,0,2.351-5.781,14.842,14.842,0,0,0-1.959-7.432ZM231.448,64.018a22.213,22.213,0,0,1-4.893,7.536,23.647,23.647,0,0,1-7.619,5.1,27.163,27.163,0,0,1-19.942,0,23.614,23.614,0,0,1-7.613-5.1,22.229,22.229,0,0,1-4.864-7.536,25.617,25.617,0,0,1,0-18.464,22.229,22.229,0,0,1,4.9-7.536,23.612,23.612,0,0,1,7.613-5.1,27.163,27.163,0,0,1,19.942,0,23.65,23.65,0,0,1,7.619,5.1,22.214,22.214,0,0,1,4.893,7.536,25.523,25.523,0,0,1,0,18.464Z" transform="translate(-52.461 -4.995)"/><path class="a" d="M229.208,6.564c0,2.841-1.826,4.333-3.935,6.029a18.737,18.737,0,0,0-3.807,3.751l-.035.042-5.256-1.207.042-.085a11.811,11.811,0,0,1,3.366-3.949c1.286-1.094,2.4-2.038,2.4-3.543s-1.459-2.709-3.628-2.709a6.956,6.956,0,0,0-5.268,3.126l-.042.05L209.21,6.193l.05-.071A12.158,12.158,0,0,1,220.1,0C225.288,0,229.208,2.842,229.208,6.564Z" transform="translate(-62.363 0)"/></g></svg>