<svg xmlns="http://www.w3.org/2000/svg" width="586.157" height="56.959" viewBox="0 0 586.157 56.959"><defs><style>.a{fill:#fff;}.b{fill:none;stroke:#fff;stroke-miterlimit:10;stroke-width:1.25px;}</style></defs><g transform="translate(-3.595 -3.595)"><path class="a" d="M54.22,30.74h2.44l7.866,21.889,7.89-21.889h2.411L65.553,55.7H63.3Z" transform="translate(-21.016 -11.147)"/><path class="a" d="M110.65,30.74h2.272V55.7H110.65Z" transform="translate(-44.734 -11.147)"/><path class="a" d="M141.39,30.74h14.9v2.116H143.662v8.881h11.832v2.116H143.662V53.58h13.153V55.7H141.39Z" transform="translate(-57.654 -11.147)"/><path class="a" d="M195.174,32.856H186.85V30.74h18.921v2.116h-8.33V55.7h-2.267Z" transform="translate(-76.761 -11.147)"/><path class="a" d="M241.26,30.74h2.927L259.01,52.594h.07V30.74h2.272V55.7h-2.9L243.6,33.847h-.07V55.7H241.26Z" transform="translate(-99.63 -11.147)"/><path class="a" d="M307.911,30.74h2.319L320.485,55.7h-2.5l-2.649-6.626H302.4L299.657,55.7H297.28Zm1.067,2.539L303.3,46.954h11.206Z" transform="translate(-123.176 -11.147)"/><path class="a" d="M358.29,30.74h3.4l8.875,20.938,8.875-20.938h3.235V55.7h-2.272V33.7h-.07L371.06,55.7h-1L360.626,33.7h-.07V55.7H358.29Z" transform="translate(-148.819 -11.147)"/><path class="a" d="M426.77,30.74h14.892v2.116H429.036v8.881h11.837v2.116H429.036V53.58h13.176V55.7H426.77Z" transform="translate(-177.602 -11.147)"/><path class="a" d="M476.818,50.627a5.913,5.913,0,0,0,2.319,2.359,6.707,6.707,0,0,0,3.252.777,6.313,6.313,0,0,0,2.133-.354,5.468,5.468,0,0,0,1.739-.985,4.574,4.574,0,0,0,1.159-1.536,4.638,4.638,0,0,0,.429-2.023,3.931,3.931,0,0,0-.533-2.151,4.2,4.2,0,0,0-1.426-1.391,10.556,10.556,0,0,0-2.011-.939c-.748-.255-1.513-.516-2.319-.771a23.588,23.588,0,0,1-2.319-.881,7.766,7.766,0,0,1-1.977-1.281,5.756,5.756,0,0,1-1.426-1.994,7.286,7.286,0,0,1-.533-2.956,6.563,6.563,0,0,1,.638-2.945,6.2,6.2,0,0,1,1.739-2.151,7.63,7.63,0,0,1,2.493-1.3,9.785,9.785,0,0,1,2.956-.441,9.373,9.373,0,0,1,3.7.725,7.1,7.1,0,0,1,2.945,2.412l-1.965,1.443A5.832,5.832,0,0,0,485.8,32.39a5.71,5.71,0,0,0-2.736-.614,7.178,7.178,0,0,0-2.1.3,5.154,5.154,0,0,0-1.739.881,4.261,4.261,0,0,0-1.159,1.461,4.572,4.572,0,0,0-.446,2.081,4.057,4.057,0,0,0,.927,2.869,6.5,6.5,0,0,0,2.319,1.588,24.34,24.34,0,0,0,3.026,1.02,14.536,14.536,0,0,1,3.026,1.159,6.59,6.59,0,0,1,2.319,2.058,6.3,6.3,0,0,1,.928,3.652,6.9,6.9,0,0,1-.649,3.038,6.511,6.511,0,0,1-1.67,2.2,7.112,7.112,0,0,1-2.423,1.362,9.108,9.108,0,0,1-2.858.458,11.223,11.223,0,0,1-4.435-.864,8.22,8.22,0,0,1-3.478-2.9Z" transform="translate(-197.727 -10.692)"/><path class="a" d="M525.57,30.74h14.9v2.116H527.842v8.881h11.832v2.116H527.842V53.58h13.171V55.7H525.57Z" transform="translate(-219.129 -11.147)"/><path class="a" d="M639.21,30.74h2.272V41.754h.2l11.8-11.014h3.13L644.305,42.16l13,13.536h-3.263L641.685,42.8h-.2V55.7H639.21Z" transform="translate(-266.893 -11.147)"/><path class="a" d="M690.78,30.74h2.267V55.7H690.78Z" transform="translate(-288.568 -11.147)"/><path class="a" d="M724.794,32.856H716.47V30.74h18.921v2.116h-8.324V55.7h-2.272Z" transform="translate(-299.366 -11.147)"/><path class="a" d="M789.793,51.276a10.306,10.306,0,0,1-4.058,3.478,11.785,11.785,0,0,1-4.985,1.061,13.06,13.06,0,0,1-5.107-.974,11.444,11.444,0,0,1-3.977-2.713,12.5,12.5,0,0,1-2.58-4.156,14.552,14.552,0,0,1-.927-5.269,14.389,14.389,0,0,1,.927-5.252,12.562,12.562,0,0,1,2.58-4.145,11.807,11.807,0,0,1,3.977-2.73,12.962,12.962,0,0,1,5.107-.985,11.9,11.9,0,0,1,4.638.9,9.23,9.23,0,0,1,3.768,3.014l-1.861,1.588a6.729,6.729,0,0,0-2.9-2.574,8.586,8.586,0,0,0-3.629-.812,10.435,10.435,0,0,0-4.284.846,9.5,9.5,0,0,0-3.252,2.319,10.354,10.354,0,0,0-2.064,3.478,13.437,13.437,0,0,0,0,8.7,10.433,10.433,0,0,0,2.064,3.478,9.5,9.5,0,0,0,3.252,2.319,10.5,10.5,0,0,0,4.284.846,8.381,8.381,0,0,0,1.925-.232,8.566,8.566,0,0,0,1.942-.7,9.419,9.419,0,0,0,1.809-1.2,7.539,7.539,0,0,0,1.513-1.739Z" transform="translate(-321.091 -10.663)"/><path class="a" d="M828,30.74h2.273V41.754H843.9V30.74h2.272V55.7H843.9V43.853H830.273V55.7H828Z" transform="translate(-346.243 -11.147)"/><path class="a" d="M886.13,30.74h14.892v2.116H888.4v8.881h11.831v2.116H888.4V53.58h13.171V55.7H886.13Z" transform="translate(-370.676 -11.147)"/><path class="a" d="M936.63,30.74h2.9l14.829,21.854h.07V30.74h2.266V55.7h-2.9L938.966,33.847H938.9V55.7H936.63Z" transform="translate(-391.902 -11.147)"/><rect class="b" width="584.907" height="55.708" transform="translate(4.22 4.22)"/></g></svg>