<svg xmlns="http://www.w3.org/2000/svg" width="261.25" height="26.013" viewBox="0 0 261.25 26.013"><defs><style>.a{fill:#fff;}.b{fill:none;stroke:#fff;stroke-miterlimit:10;stroke-width:1.25px;}</style></defs><g transform="translate(-3.595 -3.595)"><path class="a" d="M54.22,30.74H55.3l3.5,9.73,3.507-9.73h1.072L59.258,41.833h-1Z" transform="translate(-37.116 -19.686)"/><path class="a" d="M110.65,30.74h1.01V41.833h-1.01Z" transform="translate(-79.005 -19.686)"/><path class="a" d="M141.39,30.74h6.622v.941H142.4v3.948h5.259v.941H142.4v4.324h5.847v.941H141.39Z" transform="translate(-101.824 -19.686)"/><path class="a" d="M190.55,31.681h-3.7V30.74h8.411v.941h-3.7V41.833H190.55Z" transform="translate(-135.57 -19.686)"/><path class="a" d="M241.26,30.74h1.3l6.589,9.715h.031V30.74h1.01V41.833H248.9l-6.6-9.712h-.031v9.712h-1.01Z" transform="translate(-175.959 -19.686)"/><path class="a" d="M302.006,30.74h1.031l4.558,11.093h-1.111l-1.178-2.945h-5.749l-1.221,2.945H297.28Zm.474,1.129-2.523,6.079h4.981Z" transform="translate(-217.544 -19.686)"/><path class="a" d="M358.29,30.74H359.8l3.945,9.307,3.945-9.307h1.438V41.833h-1.01V32.057h-.031l-4.123,9.776h-.443l-4.2-9.776H359.3v9.776H358.29Z" transform="translate(-262.833 -19.686)"/><path class="a" d="M426.77,30.74h6.62v.941h-5.612v3.948h5.262v.941h-5.262v4.324h5.857v.941H426.77Z" transform="translate(-313.667 -19.686)"/><path class="a" d="M475.614,38.98a2.628,2.628,0,0,0,1.031,1.049,2.981,2.981,0,0,0,1.446.345,2.806,2.806,0,0,0,.948-.157,2.43,2.43,0,0,0,.773-.438,2.032,2.032,0,0,0,.515-.683,2.061,2.061,0,0,0,.191-.9,1.747,1.747,0,0,0-.237-.956,1.868,1.868,0,0,0-.634-.618,4.694,4.694,0,0,0-.894-.417c-.332-.113-.673-.229-1.031-.343a10.489,10.489,0,0,1-1.031-.392,3.453,3.453,0,0,1-.879-.569,2.559,2.559,0,0,1-.634-.886,3.239,3.239,0,0,1-.237-1.314,2.918,2.918,0,0,1,.283-1.309,2.757,2.757,0,0,1,.773-.956,3.391,3.391,0,0,1,1.108-.58,4.349,4.349,0,0,1,1.314-.2,4.166,4.166,0,0,1,1.644.322,3.154,3.154,0,0,1,1.309,1.072l-.874.642a2.592,2.592,0,0,0-.894-.822,2.538,2.538,0,0,0-1.216-.273,3.191,3.191,0,0,0-.933.134,2.291,2.291,0,0,0-.773.392,1.894,1.894,0,0,0-.515.649,2.033,2.033,0,0,0-.2.925,1.8,1.8,0,0,0,.412,1.276,2.888,2.888,0,0,0,1.031.706,10.821,10.821,0,0,0,1.345.454,6.462,6.462,0,0,1,1.345.515,2.929,2.929,0,0,1,1.031.915,2.8,2.8,0,0,1,.412,1.623,3.067,3.067,0,0,1-.289,1.35,2.894,2.894,0,0,1-.742.979,3.162,3.162,0,0,1-1.077.606,4.048,4.048,0,0,1-1.27.2,4.989,4.989,0,0,1-1.971-.384,3.654,3.654,0,0,1-1.546-1.288Z" transform="translate(-349.209 -18.884)"/><path class="a" d="M525.57,30.74h6.622v.941H526.58v3.948h5.259v.941H526.58v4.324h5.854v.941H525.57Z" transform="translate(-387.008 -19.686)"/><path class="a" d="M639.21,30.74h1.01v4.9h.09l5.246-4.9h1.391l-5.473,5.076,5.78,6.017H645.8L640.31,36.1h-.09v5.733h-1.01Z" transform="translate(-471.365 -19.686)"/><path class="a" d="M690.78,30.74h1.008V41.833H690.78Z" transform="translate(-509.647 -19.686)"/><path class="a" d="M720.17,31.681h-3.7V30.74h8.411v.941h-3.7V41.833h-1.01Z" transform="translate(-528.717 -19.686)"/><path class="a" d="M777.775,39.229a4.581,4.581,0,0,1-1.8,1.546,5.238,5.238,0,0,1-2.216.472,5.805,5.805,0,0,1-2.27-.433,5.087,5.087,0,0,1-1.768-1.206,5.555,5.555,0,0,1-1.147-1.848,6.47,6.47,0,0,1-.412-2.342,6.4,6.4,0,0,1,.412-2.335,5.584,5.584,0,0,1,1.147-1.842,5.249,5.249,0,0,1,1.768-1.214,5.762,5.762,0,0,1,2.27-.438,5.291,5.291,0,0,1,2.062.4,4.1,4.1,0,0,1,1.675,1.34l-.827.706a2.991,2.991,0,0,0-1.288-1.144,3.817,3.817,0,0,0-1.613-.361,4.639,4.639,0,0,0-1.9.376,4.223,4.223,0,0,0-1.446,1.031,4.6,4.6,0,0,0-.917,1.546,5.973,5.973,0,0,0,0,3.865,4.638,4.638,0,0,0,.917,1.546,4.224,4.224,0,0,0,1.446,1.031,4.67,4.67,0,0,0,1.9.376,3.726,3.726,0,0,0,.855-.1,3.809,3.809,0,0,0,.863-.312,4.187,4.187,0,0,0,.8-.533,3.35,3.35,0,0,0,.673-.773Z" transform="translate(-567.086 -18.832)"/><path class="a" d="M828,30.74h1.01v4.9h6.055v-4.9h1.01V41.833h-1.01V36.569H829.01v5.264H828Z" transform="translate(-611.508 -19.686)"/><path class="a" d="M886.13,30.74h6.62v.941h-5.61v3.948H892.4v.941H887.14v4.324h5.855v.941H886.13Z" transform="translate(-654.659 -19.686)"/><path class="a" d="M936.63,30.74h1.288l6.591,9.715h.031V30.74h1.007V41.833H944.26l-6.591-9.712h-.028v9.712h-1.01Z" transform="translate(-692.146 -19.686)"/><rect class="b" width="260" height="24.763" transform="translate(4.22 4.22)"/></g></svg>