<svg xmlns="http://www.w3.org/2000/svg" width="200" height="200" viewBox="0 0 200 200">
  <g id="Icon_ionic-ios-arrow-dropright" data-name="Icon ionic-ios-arrow-dropright" transform="translate(-3.375 -3.375)">
    <path id="Path_48" data-name="Path 48" d="M17.3,12.57a10.511,10.511,0,0,1,13.813,0L79.38,56.59a8.3,8.3,0,0,1,.3,12.235L32.123,112.2a10.477,10.477,0,0,1-13.813.046,8.312,8.312,0,0,1,0-12.557l40.427-37.3L17.3,25.081A8.226,8.226,0,0,1,17.3,12.57Z" transform="translate(62.561 40.941)" fill="#fff"/>
    <path id="Path_49" data-name="Path 49" d="M3.375,103.375a100,100,0,1,0,100-100A99.985,99.985,0,0,0,3.375,103.375Zm15.385,0A84.581,84.581,0,0,1,163.183,43.567,84.581,84.581,0,1,1,43.567,163.183,83.888,83.888,0,0,1,18.76,103.375Z" fill="#fff"/>
  </g>
</svg>
