<svg xmlns="http://www.w3.org/2000/svg" width="515.928" height="50.27" viewBox="0 0 515.928 50.27"><defs><style>.a{fill:#fff;}.b{fill:none;stroke:#fff;stroke-miterlimit:10;stroke-width:1.25px;}</style></defs><g transform="translate(-3.595 -3.595)"><path class="a" d="M54.22,30.74h2.147L63.289,50,70.232,30.74h2.122L64.192,52.7H62.213Z" transform="translate(-24.496 -12.992)"/><path class="a" d="M110.65,30.74h2V52.7h-2Z" transform="translate(-52.141 -12.992)"/><path class="a" d="M141.39,30.74H154.5V32.6H143.39v7.815H153.8v1.862H143.39v8.559h11.574V52.7H141.39Z" transform="translate(-67.201 -12.992)"/><path class="a" d="M194.175,32.6H186.85V30.74H203.5V32.6h-7.33V52.7h-1.995Z" transform="translate(-89.473 -12.992)"/><path class="a" d="M241.26,30.74h2.576l13.043,19.23h.061V30.74h2V52.7h-2.55L243.321,33.474h-.061V52.7h-2Z" transform="translate(-116.129 -12.992)"/><path class="a" d="M306.635,30.74h2.04L317.7,52.7h-2.2l-2.331-5.83h-11.38l-2.418,5.83H297.28Zm.939,2.234L302.58,45.007h9.86Z" transform="translate(-143.574 -12.992)"/><path class="a" d="M358.29,30.74h2.994l7.809,18.424L376.9,30.74h2.846V52.7h-2V33.347h-.061L369.527,52.7h-.877l-8.3-19.353h-.061V52.7H358.29Z" transform="translate(-173.463 -12.992)"/><path class="a" d="M426.77,30.74h13.1V32.6h-11.11v7.815H439.18v1.862H428.764v8.559h11.594V52.7H426.77Z" transform="translate(-207.012 -12.992)"/><path class="a" d="M476.558,48.11a5.2,5.2,0,0,0,2.04,2.076,5.9,5.9,0,0,0,2.862.684,5.555,5.555,0,0,0,1.877-.311,4.811,4.811,0,0,0,1.53-.867,4.024,4.024,0,0,0,1.02-1.352,4.08,4.08,0,0,0,.377-1.78,3.457,3.457,0,0,0-.469-1.892,3.7,3.7,0,0,0-1.255-1.224,9.293,9.293,0,0,0-1.77-.826c-.658-.224-1.331-.454-2.04-.678a20.763,20.763,0,0,1-2.04-.775,6.834,6.834,0,0,1-1.739-1.127A5.065,5.065,0,0,1,475.7,38.28a6.412,6.412,0,0,1-.469-2.6,5.776,5.776,0,0,1,.561-2.591,5.457,5.457,0,0,1,1.53-1.892,6.713,6.713,0,0,1,2.193-1.148,8.61,8.61,0,0,1,2.6-.388,8.248,8.248,0,0,1,3.254.638,6.244,6.244,0,0,1,2.591,2.122l-1.729,1.27a5.132,5.132,0,0,0-1.77-1.627,5.024,5.024,0,0,0-2.408-.541,6.316,6.316,0,0,0-1.847.265,4.534,4.534,0,0,0-1.53.775,3.75,3.75,0,0,0-1.02,1.285,4.024,4.024,0,0,0-.393,1.831,3.57,3.57,0,0,0,.816,2.525,5.717,5.717,0,0,0,2.04,1.4,21.418,21.418,0,0,0,2.663.9,12.791,12.791,0,0,1,2.663,1.02,5.8,5.8,0,0,1,2.04,1.811,5.545,5.545,0,0,1,.816,3.214,6.072,6.072,0,0,1-.571,2.673,5.73,5.73,0,0,1-1.469,1.938,6.259,6.259,0,0,1-2.132,1.2,8.014,8.014,0,0,1-2.515.4,9.876,9.876,0,0,1-3.9-.76,7.233,7.233,0,0,1-3.061-2.55Z" transform="translate(-230.469 -12.463)"/><path class="a" d="M525.57,30.74h13.109V32.6h-11.11v7.815H537.98v1.862H527.569v8.559h11.589V52.7H525.57Z" transform="translate(-255.416 -12.992)"/><path class="a" d="M639.21,30.74h2v9.692h.178l10.385-9.692h2.754L643.694,40.789,655.135,52.7h-2.872L641.388,41.35h-.178V52.7h-2Z" transform="translate(-311.09 -12.992)"/><path class="a" d="M690.78,30.74h1.994V52.7H690.78Z" transform="translate(-336.354 -12.992)"/><path class="a" d="M723.795,32.6H716.47V30.74h16.649V32.6h-7.325V52.7h-2Z" transform="translate(-348.94 -12.992)"/><path class="a" d="M787.2,48.672a9.07,9.07,0,0,1-3.571,3.061,10.369,10.369,0,0,1-4.387.933,11.491,11.491,0,0,1-4.494-.857,10.071,10.071,0,0,1-3.5-2.387,11,11,0,0,1-2.27-3.657,12.808,12.808,0,0,1-.816-4.637,12.662,12.662,0,0,1,.816-4.621,11.055,11.055,0,0,1,2.27-3.647,10.389,10.389,0,0,1,3.5-2.4,11.405,11.405,0,0,1,4.494-.867,10.473,10.473,0,0,1,4.081.791,8.121,8.121,0,0,1,3.315,2.652L785,34.43a5.921,5.921,0,0,0-2.55-2.265,7.555,7.555,0,0,0-3.193-.714,9.182,9.182,0,0,0-3.77.745,8.36,8.36,0,0,0-2.862,2.04,9.111,9.111,0,0,0-1.816,3.061,11.824,11.824,0,0,0,0,7.651,9.182,9.182,0,0,0,1.816,3.061,8.362,8.362,0,0,0,2.862,2.04,9.243,9.243,0,0,0,3.77.745,7.375,7.375,0,0,0,1.693-.2,7.538,7.538,0,0,0,1.709-.617,8.289,8.289,0,0,0,1.592-1.056,6.63,6.63,0,0,0,1.331-1.53Z" transform="translate(-374.263 -12.428)"/><path class="a" d="M828,30.74h2v9.692h11.987V30.74h2V52.7h-2V42.278H830V52.7h-2Z" transform="translate(-403.58 -12.992)"/><path class="a" d="M886.13,30.74h13.1V32.6h-11.1v7.815H898.54v1.862H888.129v8.559h11.589V52.7H886.13Z" transform="translate(-432.059 -12.992)"/><path class="a" d="M936.63,30.74h2.55l13.048,19.23h.061V30.74h1.994V52.7h-2.55L938.686,33.474h-.056V52.7h-2Z" transform="translate(-456.799 -12.992)"/><rect class="b" width="514.678" height="49.019" transform="translate(4.22 4.22)"/></g></svg>